<mxfile host="Electron" agent="Mozilla/5.0 (Windows NT 10.0; Win64; x64) AppleWebKit/537.36 (KHTML, like Gecko) draw.io/28.2.5 Chrome/138.0.7204.251 Electron/37.6.1 Safari/537.36" version="28.2.5">
  <diagram name="Страница — 1" id="zkG6k4EliSTGHDpWZENj">
    <mxGraphModel dx="1426" dy="849" grid="1" gridSize="10" guides="1" tooltips="1" connect="1" arrows="1" fold="1" page="1" pageScale="1" pageWidth="827" pageHeight="1169" math="0" shadow="0">
      <root>
        <mxCell id="0" />
        <mxCell id="1" parent="0" />
        <object label="Employees" id="y8jVesX7hmIWQI-wK-A4-1">
          <mxCell style="swimlane;fontStyle=0;childLayout=stackLayout;horizontal=1;startSize=30;horizontalStack=0;resizeParent=1;resizeParentMax=0;resizeLast=0;collapsible=1;marginBottom=0;whiteSpace=wrap;html=1;glass=0;rounded=0;shadow=0;metaEdit=1;" parent="1" vertex="1">
            <mxGeometry x="250" y="160" width="140" height="210" as="geometry">
              <mxRectangle x="40" y="100" width="90" height="30" as="alternateBounds" />
            </mxGeometry>
          </mxCell>
        </object>
        <mxCell id="Snnew0URXJ10uR-gH_-g-13" value="Id" style="text;strokeColor=none;fillColor=none;align=left;verticalAlign=middle;spacingLeft=4;spacingRight=4;overflow=hidden;points=[[0,0.5],[1,0.5]];portConstraint=eastwest;rotatable=0;whiteSpace=wrap;html=1;" vertex="1" parent="y8jVesX7hmIWQI-wK-A4-1">
          <mxGeometry y="30" width="140" height="30" as="geometry" />
        </mxCell>
        <mxCell id="y8jVesX7hmIWQI-wK-A4-4" value="Name" style="text;strokeColor=none;fillColor=none;align=left;verticalAlign=middle;spacingLeft=4;spacingRight=4;overflow=hidden;points=[[0,0.5],[1,0.5]];portConstraint=eastwest;rotatable=0;whiteSpace=wrap;html=1;" parent="y8jVesX7hmIWQI-wK-A4-1" vertex="1">
          <mxGeometry y="60" width="140" height="30" as="geometry" />
        </mxCell>
        <mxCell id="y8jVesX7hmIWQI-wK-A4-3" value="Surname" style="text;strokeColor=none;fillColor=none;align=left;verticalAlign=middle;spacingLeft=4;spacingRight=4;overflow=hidden;points=[[0,0.5],[1,0.5]];portConstraint=eastwest;rotatable=0;whiteSpace=wrap;html=1;" parent="y8jVesX7hmIWQI-wK-A4-1" vertex="1">
          <mxGeometry y="90" width="140" height="30" as="geometry" />
        </mxCell>
        <mxCell id="y8jVesX7hmIWQI-wK-A4-5" value="Patronymic" style="text;strokeColor=none;fillColor=none;align=left;verticalAlign=middle;spacingLeft=4;spacingRight=4;overflow=hidden;points=[[0,0.5],[1,0.5]];portConstraint=eastwest;rotatable=0;whiteSpace=wrap;html=1;" parent="y8jVesX7hmIWQI-wK-A4-1" vertex="1">
          <mxGeometry y="120" width="140" height="30" as="geometry" />
        </mxCell>
        <mxCell id="y8jVesX7hmIWQI-wK-A4-6" value="Username" style="text;strokeColor=none;fillColor=none;align=left;verticalAlign=middle;spacingLeft=4;spacingRight=4;overflow=hidden;points=[[0,0.5],[1,0.5]];portConstraint=eastwest;rotatable=0;whiteSpace=wrap;html=1;" parent="y8jVesX7hmIWQI-wK-A4-1" vertex="1">
          <mxGeometry y="150" width="140" height="30" as="geometry" />
        </mxCell>
        <mxCell id="y8jVesX7hmIWQI-wK-A4-7" value="Role" style="text;strokeColor=none;fillColor=none;align=left;verticalAlign=middle;spacingLeft=4;spacingRight=4;overflow=hidden;points=[[0,0.5],[1,0.5]];portConstraint=eastwest;rotatable=0;whiteSpace=wrap;html=1;" parent="y8jVesX7hmIWQI-wK-A4-1" vertex="1">
          <mxGeometry y="180" width="140" height="30" as="geometry" />
        </mxCell>
        <mxCell id="y8jVesX7hmIWQI-wK-A4-10" value="Task" style="swimlane;fontStyle=0;childLayout=stackLayout;horizontal=1;startSize=30;horizontalStack=0;resizeParent=1;resizeParentMax=0;resizeLast=0;collapsible=1;marginBottom=0;whiteSpace=wrap;html=1;" parent="1" vertex="1">
          <mxGeometry x="787" y="40" width="140" height="360" as="geometry" />
        </mxCell>
        <mxCell id="y8jVesX7hmIWQI-wK-A4-11" value="Id" style="text;strokeColor=none;fillColor=none;align=left;verticalAlign=middle;spacingLeft=4;spacingRight=4;overflow=hidden;points=[[0,0.5],[1,0.5]];portConstraint=eastwest;rotatable=0;whiteSpace=wrap;html=1;" parent="y8jVesX7hmIWQI-wK-A4-10" vertex="1">
          <mxGeometry y="30" width="140" height="30" as="geometry" />
        </mxCell>
        <mxCell id="y8jVesX7hmIWQI-wK-A4-12" value="Name" style="text;strokeColor=none;fillColor=none;align=left;verticalAlign=middle;spacingLeft=4;spacingRight=4;overflow=hidden;points=[[0,0.5],[1,0.5]];portConstraint=eastwest;rotatable=0;whiteSpace=wrap;html=1;" parent="y8jVesX7hmIWQI-wK-A4-10" vertex="1">
          <mxGeometry y="60" width="140" height="30" as="geometry" />
        </mxCell>
        <mxCell id="y8jVesX7hmIWQI-wK-A4-13" value="Description" style="text;strokeColor=none;fillColor=none;align=left;verticalAlign=middle;spacingLeft=4;spacingRight=4;overflow=hidden;points=[[0,0.5],[1,0.5]];portConstraint=eastwest;rotatable=0;whiteSpace=wrap;html=1;" parent="y8jVesX7hmIWQI-wK-A4-10" vertex="1">
          <mxGeometry y="90" width="140" height="30" as="geometry" />
        </mxCell>
        <mxCell id="y8jVesX7hmIWQI-wK-A4-14" value="Project" style="text;strokeColor=none;fillColor=none;align=left;verticalAlign=middle;spacingLeft=4;spacingRight=4;overflow=hidden;points=[[0,0.5],[1,0.5]];portConstraint=eastwest;rotatable=0;whiteSpace=wrap;html=1;" parent="y8jVesX7hmIWQI-wK-A4-10" vertex="1">
          <mxGeometry y="120" width="140" height="30" as="geometry" />
        </mxCell>
        <mxCell id="y8jVesX7hmIWQI-wK-A4-41" value="Group" style="text;strokeColor=none;fillColor=none;align=left;verticalAlign=middle;spacingLeft=4;spacingRight=4;overflow=hidden;points=[[0,0.5],[1,0.5]];portConstraint=eastwest;rotatable=0;whiteSpace=wrap;html=1;" parent="y8jVesX7hmIWQI-wK-A4-10" vertex="1">
          <mxGeometry y="150" width="140" height="30" as="geometry" />
        </mxCell>
        <mxCell id="y8jVesX7hmIWQI-wK-A4-42" value="RealizationDeadline" style="text;strokeColor=none;fillColor=none;align=left;verticalAlign=middle;spacingLeft=4;spacingRight=4;overflow=hidden;points=[[0,0.5],[1,0.5]];portConstraint=eastwest;rotatable=0;whiteSpace=wrap;html=1;" parent="y8jVesX7hmIWQI-wK-A4-10" vertex="1">
          <mxGeometry y="180" width="140" height="30" as="geometry" />
        </mxCell>
        <mxCell id="y8jVesX7hmIWQI-wK-A4-43" value="CreationDate" style="text;strokeColor=none;fillColor=none;align=left;verticalAlign=middle;spacingLeft=4;spacingRight=4;overflow=hidden;points=[[0,0.5],[1,0.5]];portConstraint=eastwest;rotatable=0;whiteSpace=wrap;html=1;" parent="y8jVesX7hmIWQI-wK-A4-10" vertex="1">
          <mxGeometry y="210" width="140" height="30" as="geometry" />
        </mxCell>
        <mxCell id="y8jVesX7hmIWQI-wK-A4-44" value="Status" style="text;strokeColor=none;fillColor=none;align=left;verticalAlign=middle;spacingLeft=4;spacingRight=4;overflow=hidden;points=[[0,0.5],[1,0.5]];portConstraint=eastwest;rotatable=0;whiteSpace=wrap;html=1;" parent="y8jVesX7hmIWQI-wK-A4-10" vertex="1">
          <mxGeometry y="240" width="140" height="30" as="geometry" />
        </mxCell>
        <mxCell id="y8jVesX7hmIWQI-wK-A4-45" value="Priority" style="text;strokeColor=none;fillColor=none;align=left;verticalAlign=middle;spacingLeft=4;spacingRight=4;overflow=hidden;points=[[0,0.5],[1,0.5]];portConstraint=eastwest;rotatable=0;whiteSpace=wrap;html=1;" parent="y8jVesX7hmIWQI-wK-A4-10" vertex="1">
          <mxGeometry y="270" width="140" height="30" as="geometry" />
        </mxCell>
        <mxCell id="y8jVesX7hmIWQI-wK-A4-47" value="Performers" style="text;strokeColor=none;fillColor=none;align=left;verticalAlign=middle;spacingLeft=4;spacingRight=4;overflow=hidden;points=[[0,0.5],[1,0.5]];portConstraint=eastwest;rotatable=0;whiteSpace=wrap;html=1;" parent="y8jVesX7hmIWQI-wK-A4-10" vertex="1">
          <mxGeometry y="300" width="140" height="30" as="geometry" />
        </mxCell>
        <mxCell id="y8jVesX7hmIWQI-wK-A4-46" value="Observers" style="text;strokeColor=none;fillColor=none;align=left;verticalAlign=middle;spacingLeft=4;spacingRight=4;overflow=hidden;points=[[0,0.5],[1,0.5]];portConstraint=eastwest;rotatable=0;whiteSpace=wrap;html=1;" parent="y8jVesX7hmIWQI-wK-A4-10" vertex="1">
          <mxGeometry y="330" width="140" height="30" as="geometry" />
        </mxCell>
        <mxCell id="y8jVesX7hmIWQI-wK-A4-22" value="Project" style="swimlane;fontStyle=0;childLayout=stackLayout;horizontal=1;startSize=30;horizontalStack=0;resizeParent=1;resizeParentMax=0;resizeLast=0;collapsible=1;marginBottom=0;whiteSpace=wrap;html=1;" parent="1" vertex="1">
          <mxGeometry x="470" y="465" width="140" height="180" as="geometry" />
        </mxCell>
        <mxCell id="y8jVesX7hmIWQI-wK-A4-23" value="Id" style="text;strokeColor=none;fillColor=none;align=left;verticalAlign=middle;spacingLeft=4;spacingRight=4;overflow=hidden;points=[[0,0.5],[1,0.5]];portConstraint=eastwest;rotatable=0;whiteSpace=wrap;html=1;" parent="y8jVesX7hmIWQI-wK-A4-22" vertex="1">
          <mxGeometry y="30" width="140" height="30" as="geometry" />
        </mxCell>
        <mxCell id="y8jVesX7hmIWQI-wK-A4-24" value="Name" style="text;strokeColor=none;fillColor=none;align=left;verticalAlign=middle;spacingLeft=4;spacingRight=4;overflow=hidden;points=[[0,0.5],[1,0.5]];portConstraint=eastwest;rotatable=0;whiteSpace=wrap;html=1;" parent="y8jVesX7hmIWQI-wK-A4-22" vertex="1">
          <mxGeometry y="60" width="140" height="30" as="geometry" />
        </mxCell>
        <mxCell id="y8jVesX7hmIWQI-wK-A4-25" value="Description" style="text;strokeColor=none;fillColor=none;align=left;verticalAlign=middle;spacingLeft=4;spacingRight=4;overflow=hidden;points=[[0,0.5],[1,0.5]];portConstraint=eastwest;rotatable=0;whiteSpace=wrap;html=1;" parent="y8jVesX7hmIWQI-wK-A4-22" vertex="1">
          <mxGeometry y="90" width="140" height="30" as="geometry" />
        </mxCell>
        <mxCell id="y8jVesX7hmIWQI-wK-A4-26" value="Supervisor" style="text;strokeColor=none;fillColor=none;align=left;verticalAlign=middle;spacingLeft=4;spacingRight=4;overflow=hidden;points=[[0,0.5],[1,0.5]];portConstraint=eastwest;rotatable=0;whiteSpace=wrap;html=1;" parent="y8jVesX7hmIWQI-wK-A4-22" vertex="1">
          <mxGeometry y="120" width="140" height="30" as="geometry" />
        </mxCell>
        <mxCell id="y8jVesX7hmIWQI-wK-A4-48" value="Manager" style="text;strokeColor=none;fillColor=none;align=left;verticalAlign=middle;spacingLeft=4;spacingRight=4;overflow=hidden;points=[[0,0.5],[1,0.5]];portConstraint=eastwest;rotatable=0;whiteSpace=wrap;html=1;" parent="y8jVesX7hmIWQI-wK-A4-22" vertex="1">
          <mxGeometry y="150" width="140" height="30" as="geometry" />
        </mxCell>
        <mxCell id="y8jVesX7hmIWQI-wK-A4-30" value="TasksGroups" style="swimlane;fontStyle=0;childLayout=stackLayout;horizontal=1;startSize=30;horizontalStack=0;resizeParent=1;resizeParentMax=0;resizeLast=0;collapsible=1;marginBottom=0;whiteSpace=wrap;html=1;" parent="1" vertex="1">
          <mxGeometry x="1000" y="160" width="140" height="90" as="geometry" />
        </mxCell>
        <mxCell id="y8jVesX7hmIWQI-wK-A4-31" value="Id" style="text;strokeColor=none;fillColor=none;align=left;verticalAlign=middle;spacingLeft=4;spacingRight=4;overflow=hidden;points=[[0,0.5],[1,0.5]];portConstraint=eastwest;rotatable=0;whiteSpace=wrap;html=1;" parent="y8jVesX7hmIWQI-wK-A4-30" vertex="1">
          <mxGeometry y="30" width="140" height="30" as="geometry" />
        </mxCell>
        <mxCell id="y8jVesX7hmIWQI-wK-A4-32" value="Name" style="text;strokeColor=none;fillColor=none;align=left;verticalAlign=middle;spacingLeft=4;spacingRight=4;overflow=hidden;points=[[0,0.5],[1,0.5]];portConstraint=eastwest;rotatable=0;whiteSpace=wrap;html=1;" parent="y8jVesX7hmIWQI-wK-A4-30" vertex="1">
          <mxGeometry y="60" width="140" height="30" as="geometry" />
        </mxCell>
        <mxCell id="y8jVesX7hmIWQI-wK-A4-53" value="TasksPerformers" style="swimlane;fontStyle=0;childLayout=stackLayout;horizontal=1;startSize=30;horizontalStack=0;resizeParent=1;resizeParentMax=0;resizeLast=0;collapsible=1;marginBottom=0;whiteSpace=wrap;html=1;" parent="1" vertex="1">
          <mxGeometry x="470" y="130" width="140" height="90" as="geometry" />
        </mxCell>
        <mxCell id="y8jVesX7hmIWQI-wK-A4-54" value="TaskId" style="text;strokeColor=none;fillColor=none;align=left;verticalAlign=middle;spacingLeft=4;spacingRight=4;overflow=hidden;points=[[0,0.5],[1,0.5]];portConstraint=eastwest;rotatable=0;whiteSpace=wrap;html=1;" parent="y8jVesX7hmIWQI-wK-A4-53" vertex="1">
          <mxGeometry y="30" width="140" height="30" as="geometry" />
        </mxCell>
        <mxCell id="y8jVesX7hmIWQI-wK-A4-55" value="EmployeeId" style="text;strokeColor=none;fillColor=none;align=left;verticalAlign=middle;spacingLeft=4;spacingRight=4;overflow=hidden;points=[[0,0.5],[1,0.5]];portConstraint=eastwest;rotatable=0;whiteSpace=wrap;html=1;" parent="y8jVesX7hmIWQI-wK-A4-53" vertex="1">
          <mxGeometry y="60" width="140" height="30" as="geometry" />
        </mxCell>
        <mxCell id="y8jVesX7hmIWQI-wK-A4-58" value="" style="edgeStyle=entityRelationEdgeStyle;fontSize=12;html=1;endArrow=ERoneToMany;rounded=0;exitX=1;exitY=0.5;exitDx=0;exitDy=0;entryX=0;entryY=0.5;entryDx=0;entryDy=0;" parent="1" source="Snnew0URXJ10uR-gH_-g-13" target="y8jVesX7hmIWQI-wK-A4-55" edge="1">
          <mxGeometry width="100" height="100" relative="1" as="geometry">
            <mxPoint x="390" y="235" as="sourcePoint" />
            <mxPoint x="260" y="350" as="targetPoint" />
          </mxGeometry>
        </mxCell>
        <mxCell id="y8jVesX7hmIWQI-wK-A4-60" value="" style="edgeStyle=entityRelationEdgeStyle;fontSize=12;html=1;endArrow=ERoneToMany;rounded=0;exitX=0;exitY=0.5;exitDx=0;exitDy=0;entryX=1;entryY=0.5;entryDx=0;entryDy=0;startArrow=ERmandOne;startFill=0;" parent="1" source="y8jVesX7hmIWQI-wK-A4-31" target="y8jVesX7hmIWQI-wK-A4-41" edge="1">
          <mxGeometry width="100" height="100" relative="1" as="geometry">
            <mxPoint x="820" y="320" as="sourcePoint" />
            <mxPoint x="900" y="160" as="targetPoint" />
            <Array as="points">
              <mxPoint x="770" y="110" />
            </Array>
          </mxGeometry>
        </mxCell>
        <mxCell id="Snnew0URXJ10uR-gH_-g-7" value="TasksObservers" style="swimlane;fontStyle=0;childLayout=stackLayout;horizontal=1;startSize=30;horizontalStack=0;resizeParent=1;resizeParentMax=0;resizeLast=0;collapsible=1;marginBottom=0;whiteSpace=wrap;html=1;" vertex="1" parent="1">
          <mxGeometry x="470" y="300" width="140" height="90" as="geometry" />
        </mxCell>
        <mxCell id="Snnew0URXJ10uR-gH_-g-8" value="TaskId" style="text;strokeColor=none;fillColor=none;align=left;verticalAlign=middle;spacingLeft=4;spacingRight=4;overflow=hidden;points=[[0,0.5],[1,0.5]];portConstraint=eastwest;rotatable=0;whiteSpace=wrap;html=1;" vertex="1" parent="Snnew0URXJ10uR-gH_-g-7">
          <mxGeometry y="30" width="140" height="30" as="geometry" />
        </mxCell>
        <mxCell id="Snnew0URXJ10uR-gH_-g-9" value="EmployeeId" style="text;strokeColor=none;fillColor=none;align=left;verticalAlign=middle;spacingLeft=4;spacingRight=4;overflow=hidden;points=[[0,0.5],[1,0.5]];portConstraint=eastwest;rotatable=0;whiteSpace=wrap;html=1;" vertex="1" parent="Snnew0URXJ10uR-gH_-g-7">
          <mxGeometry y="60" width="140" height="30" as="geometry" />
        </mxCell>
        <mxCell id="Snnew0URXJ10uR-gH_-g-14" style="edgeStyle=orthogonalEdgeStyle;rounded=0;orthogonalLoop=1;jettySize=auto;html=1;entryX=0;entryY=0.5;entryDx=0;entryDy=0;endArrow=ERoneToMany;endFill=0;startArrow=ERmandOne;startFill=0;" edge="1" parent="1" source="Snnew0URXJ10uR-gH_-g-13" target="y8jVesX7hmIWQI-wK-A4-26">
          <mxGeometry relative="1" as="geometry">
            <Array as="points">
              <mxPoint x="210" y="205" />
              <mxPoint x="210" y="600" />
            </Array>
          </mxGeometry>
        </mxCell>
        <mxCell id="Snnew0URXJ10uR-gH_-g-15" style="edgeStyle=orthogonalEdgeStyle;rounded=0;orthogonalLoop=1;jettySize=auto;html=1;endArrow=ERoneToMany;endFill=0;" edge="1" parent="1" source="Snnew0URXJ10uR-gH_-g-13" target="y8jVesX7hmIWQI-wK-A4-48">
          <mxGeometry relative="1" as="geometry" />
        </mxCell>
        <mxCell id="Snnew0URXJ10uR-gH_-g-16" style="edgeStyle=orthogonalEdgeStyle;rounded=0;orthogonalLoop=1;jettySize=auto;html=1;entryX=0;entryY=0.5;entryDx=0;entryDy=0;endArrow=ERoneToMany;endFill=0;startArrow=ERmandOne;startFill=0;" edge="1" parent="1" source="Snnew0URXJ10uR-gH_-g-13" target="Snnew0URXJ10uR-gH_-g-8">
          <mxGeometry relative="1" as="geometry" />
        </mxCell>
        <mxCell id="Snnew0URXJ10uR-gH_-g-18" style="edgeStyle=orthogonalEdgeStyle;rounded=0;orthogonalLoop=1;jettySize=auto;html=1;entryX=0;entryY=0.5;entryDx=0;entryDy=0;endArrow=ERoneToMany;endFill=0;startArrow=ERmandOne;startFill=0;" edge="1" parent="1" source="y8jVesX7hmIWQI-wK-A4-23" target="y8jVesX7hmIWQI-wK-A4-14">
          <mxGeometry relative="1" as="geometry" />
        </mxCell>
        <mxCell id="Snnew0URXJ10uR-gH_-g-19" style="edgeStyle=orthogonalEdgeStyle;rounded=0;orthogonalLoop=1;jettySize=auto;html=1;entryX=1;entryY=0.5;entryDx=0;entryDy=0;endArrow=ERoneToMany;endFill=0;startArrow=ERmandOne;startFill=0;" edge="1" parent="1" source="y8jVesX7hmIWQI-wK-A4-47" target="y8jVesX7hmIWQI-wK-A4-54">
          <mxGeometry relative="1" as="geometry" />
        </mxCell>
        <mxCell id="Snnew0URXJ10uR-gH_-g-20" style="edgeStyle=orthogonalEdgeStyle;rounded=0;orthogonalLoop=1;jettySize=auto;html=1;entryX=1;entryY=0.5;entryDx=0;entryDy=0;endArrow=ERoneToMany;endFill=0;startArrow=ERmandOne;startFill=0;" edge="1" parent="1" source="y8jVesX7hmIWQI-wK-A4-46" target="Snnew0URXJ10uR-gH_-g-8">
          <mxGeometry relative="1" as="geometry" />
        </mxCell>
      </root>
    </mxGraphModel>
  </diagram>
</mxfile>
